<?xml version="1.0" standalone="no"?>
<!DOCTYPE svg PUBLIC "-//W3C//DTD SVG 20010904//EN"
 "http://www.w3.org/TR/2001/REC-SVG-20010904/DTD/svg10.dtd">
<svg version="1.0" xmlns="http://www.w3.org/2000/svg"
 width="500.000000pt" height="500.000000pt" viewBox="0 0 500.000000 500.000000"
 preserveAspectRatio="xMidYMid meet">

<g transform="translate(0.000000,500.000000) scale(0.100000,-0.100000)"
fill="#000000" stroke="none">
<path d="M1329 3027 c-68 -29 -90 -44 -156 -108 -55 -54 -112 -153 -133 -232
-8 -30 -11 -83 -8 -146 4 -88 9 -108 41 -175 21 -44 55 -95 83 -123 25 -26 43
-42 39 -34 -6 11 -1 13 23 9 31 -4 52 14 31 28 -6 3 -3 11 8 19 16 12 20 10
31 -11 14 -27 20 -29 45 -10 15 12 18 26 15 75 -1 34 -7 61 -11 61 -5 0 -6 7
-3 16 3 8 0 37 -8 62 -8 26 -17 59 -20 74 -5 21 -13 28 -39 31 l-32 4 32 1
c27 2 34 7 38 30 3 15 12 49 20 76 8 27 11 54 8 60 -3 6 -3 8 1 4 8 -7 77 87
80 109 1 7 6 16 11 20 4 4 5 2 0 -6 -5 -9 -4 -12 3 -7 7 4 12 15 12 24 0 15 2
15 10 2 5 -8 10 -10 10 -4 0 7 11 15 25 18 14 4 25 11 25 17 0 6 -4 8 -9 5 -4
-3 -6 5 -4 17 2 12 -1 35 -6 51 -9 23 -16 27 -36 24 -31 -6 -32 0 -2 12 l22 9
-23 0 c-13 1 -20 5 -17 11 11 18 -48 10 -106 -13z m151 -122 c0 -2 -9 -3 -19
-2 -11 0 -18 5 -15 9 4 6 34 0 34 -7z"/>
<path d="M1532 2934 c-7 -8 -8 -14 -3 -14 10 0 25 19 20 25 -2 1 -10 -3 -17
-11z"/>
<path d="M1215 2190 c-4 -6 1 -7 11 -3 13 5 15 3 9 -7 -5 -9 -4 -11 3 -6 7 4
12 11 12 17 0 12 -27 12 -35 -1z"/>
</g>
</svg>
