<?xml version="1.0" standalone="no"?>
<!DOCTYPE svg PUBLIC "-//W3C//DTD SVG 20010904//EN"
 "http://www.w3.org/TR/2001/REC-SVG-20010904/DTD/svg10.dtd">
<svg version="1.0" xmlns="http://www.w3.org/2000/svg"
 width="500.000000pt" height="500.000000pt" viewBox="0 0 500.000000 500.000000"
 preserveAspectRatio="xMidYMid meet">

<g transform="translate(0.000000,500.000000) scale(0.100000,-0.100000)"
fill="#000000" stroke="none">
<path d="M1418 2974 c-3 -3 -24 -7 -47 -8 -109 -8 -262 -132 -323 -261 -82
-177 -53 -398 71 -537 36 -40 46 -46 62 -38 14 8 17 7 14 -3 -7 -17 16 -47 39
-51 9 -1 21 -8 25 -15 6 -10 10 -9 14 4 4 9 3 14 -2 11 -4 -3 -13 6 -20 20 -7
17 -17 24 -26 20 -19 -7 -19 11 -1 30 11 11 21 12 41 4 43 -16 60 10 60 92 0
47 -4 68 -12 68 -7 0 -10 6 -7 13 2 7 -2 32 -11 56 -8 24 -15 56 -15 72 0 21
-5 29 -17 29 -17 1 -17 1 0 11 10 6 17 22 17 38 0 71 53 172 129 246 23 21 41
45 41 53 0 7 4 11 8 8 5 -3 8 17 8 43 -1 38 2 47 13 43 10 -4 13 -1 8 12 -4
10 -7 24 -7 32 0 14 -50 21 -62 8z"/>
<path d="M1491 2964 c0 -11 3 -14 6 -6 3 7 2 16 -1 19 -3 4 -6 -2 -5 -13z"/>
<path d="M1496 2923 c-9 -22 -7 -26 8 -20 7 3 19 0 25 -6 6 -6 12 -9 14 -6 2
2 -7 14 -19 25 -19 18 -24 19 -28 7z"/>
<path d="M2760 2515 l0 -155 30 0 30 0 0 68 c0 54 4 72 18 85 46 42 82 3 82
-90 l0 -63 30 0 30 0 0 81 c0 80 -9 113 -39 136 -22 17 -63 16 -87 -2 -30 -23
-34 -19 -34 40 0 54 0 55 -30 55 l-30 0 0 -155z"/>
<path d="M2030 2625 c0 -23 4 -25 45 -25 l45 0 0 -120 0 -120 30 0 30 0 0 120
0 120 45 0 c41 0 45 2 45 25 l0 25 -120 0 -120 0 0 -25z"/>
<path d="M3150 2505 l0 -145 94 0 c52 0 97 4 100 8 3 5 2 18 -1 30 -5 20 -12
22 -69 22 l-64 0 0 115 0 115 -30 0 -30 0 0 -145z"/>
<path d="M2324 2581 c-64 -28 -87 -133 -40 -184 13 -14 36 -29 51 -33 35 -9
95 2 114 21 14 13 14 17 -2 32 -13 13 -19 15 -29 5 -18 -18 -63 -14 -83 8 -18
20 -17 20 63 20 l82 0 0 35 c0 70 -89 125 -156 96z m80 -57 c26 -26 18 -34
-34 -34 -52 0 -60 8 -34 34 20 20 48 20 68 0z"/>
<path d="M2569 2575 c-53 -29 -75 -100 -48 -159 25 -54 133 -72 180 -30 25 22
24 29 -5 42 -18 8 -28 7 -43 -3 -10 -8 -24 -15 -30 -15 -21 0 -53 38 -53 63 0
44 59 74 88 45 9 -9 18 -9 37 0 22 10 24 14 13 32 -24 37 -93 50 -139 25z"/>
<path d="M3425 2572 c-45 -28 -57 -47 -57 -95 -1 -59 30 -104 78 -113 44 -8
92 1 116 23 17 16 17 17 -3 31 -15 10 -24 11 -32 3 -23 -23 -97 -8 -97 21 0 4
34 8 75 8 85 0 94 8 78 63 -10 37 -64 77 -102 77 -14 0 -39 -8 -56 -18z m89
-48 c26 -26 18 -34 -34 -34 -54 0 -59 4 -33 32 20 22 46 23 67 2z"/>
<path d="M3725 2574 c-19 -10 -31 -11 -33 -5 -2 6 -17 11 -33 11 l-29 0 0
-110 0 -110 35 0 35 0 0 75 c0 63 3 76 19 85 49 26 71 -2 71 -91 l0 -69 30 0
30 0 0 90 c0 83 -2 93 -25 115 -28 29 -58 31 -100 9z"/>
<path d="M3933 2570 c-58 -35 -38 -101 35 -116 42 -9 59 -29 35 -42 -12 -7
-30 -6 -56 3 -34 12 -38 11 -47 -5 -14 -26 -14 -27 21 -39 82 -28 152 -2 152
58 0 36 -19 54 -75 71 -21 6 -38 15 -38 21 0 17 30 22 65 12 27 -9 35 -8 39 4
10 25 7 31 -25 42 -45 16 -69 14 -106 -9z"/>
</g>
</svg>
